<?xml version="1.0" encoding="iso-8859-1"?>
<!-- Generator: Adobe Illustrator 19.0.0, SVG Export Plug-In . SVG Version: 6.00 Build 0)  -->
<svg version="1.1" id="Layer_1" xmlns="http://www.w3.org/2000/svg" xmlns:xlink="http://www.w3.org/1999/xlink" x="0px" y="0px"
	 viewBox="0 0 512 512" style="enable-background:new 0 0 512 512;" xml:space="preserve">
<rect x="223.529" y="224.282" transform="matrix(-0.3257 -0.9455 0.9455 -0.3257 17.0933 683.687)" style="fill:#F2E9DC;" width="57.637" height="222.933"/>
<rect x="376.993" y="213.054" transform="matrix(-0.3257 -0.9455 0.9455 -0.3257 270.519 758.7054)" style="fill:#FFAC55;" width="57.637" height="139.664"/>
<path style="fill:#707487;" d="M231.267,90.697c-13.455,0-24.362,10.907-24.362,24.362s10.907,24.362,24.362,24.362h90.94
	c13.454,0,24.362,10.907,24.362,24.362c0,13.455-10.907,24.362-24.362,24.362H74.599c-13.455,0-24.362-10.907-24.362-24.362
	c0-13.454,10.907-24.362,24.362-24.362h34.102c13.455,0,24.362-10.907,24.362-24.362s-10.907-24.362-24.362-24.362H40.497
	c-13.455,0-24.362-10.907-24.362-24.362s10.907-24.362,24.362-24.362h224.872c13.455,0,24.362,10.907,24.362,24.362
	s-10.907,24.362-24.362,24.362H231.267z"/>
<g>
	<path style="fill:#C7CFE2;" d="M141.618,283.572c13.455,0,24.362-10.907,24.362-24.362c0-13.454-10.907-24.362-24.362-24.362
		H94.082c-13.455,0-24.362,10.907-24.362,24.362c0,13.455,10.907,24.362,24.362,24.362H141.618z"/>
	<path style="fill:#C7CFE2;" d="M403.69,106.601c13.455,0,24.362-10.907,24.362-24.362s-10.907-24.362-24.362-24.362h-32.759
		c-13.454,0-24.362,10.907-24.362,24.362s10.907,24.362,24.362,24.362H403.69z"/>
</g>
<path style="fill:#5B5D6E;" d="M291.24,327.334c0,19.462-15.777,35.239-35.239,35.239s-35.239-15.777-35.239-35.239H0v44.332
	c0,54.323,44.037,98.36,98.36,98.36h315.28c54.323,0,98.36-44.037,98.36-98.36v-44.332L291.24,327.334L291.24,327.334z"/>
<g style="opacity:0.2;">
	<path style="fill:#171D26;" d="M68.205,371.666v-44.332H0v44.332c0,54.323,44.037,98.36,98.36,98.36h68.205
		C112.242,470.025,68.205,425.989,68.205,371.666z"/>
</g>
<g>
</g>
<g>
</g>
<g>
</g>
<g>
</g>
<g>
</g>
<g>
</g>
<g>
</g>
<g>
</g>
<g>
</g>
<g>
</g>
<g>
</g>
<g>
</g>
<g>
</g>
<g>
</g>
<g>
</g>
</svg>
