<?xml version="1.0" encoding="iso-8859-1"?>
<!-- Generator: Adobe Illustrator 18.0.0, SVG Export Plug-In . SVG Version: 6.00 Build 0)  -->
<!DOCTYPE svg PUBLIC "-//W3C//DTD SVG 1.1//EN" "http://www.w3.org/Graphics/SVG/1.1/DTD/svg11.dtd">
<svg xmlns="http://www.w3.org/2000/svg" xmlns:xlink="http://www.w3.org/1999/xlink" version="1.1" id="Capa_1" x="0px" y="0px" viewBox="0 0 276.859 276.859" style="enable-background:new 0 0 276.859 276.859;" xml:space="preserve" width="512px" height="512px">
<path d="M274.789,55.957l-20.175-20.175c-2.76-2.76-7.235-2.76-9.995,0l-8.941,8.941c-12.855,12.856-32.092,16.941-49.066,10.429  c-14.348-5.505-30.754-8.629-48.183-8.629c-17.428,0-33.834,3.124-48.183,8.629c-16.968,6.511-36.215,2.422-49.066-10.429  l-8.941-8.941c-2.76-2.76-7.235-2.76-9.995,0L2.07,55.957c-2.76,2.76-2.76,7.235,0,9.995l20.883,20.883  c8.631,8.631,13.482,20.336,13.482,32.542c0,27.219,20.898,50.948,51.858,63.454c17.399,7.028,28.803,23.932,28.803,42.696v10.552  c0,3.903,3.164,7.068,7.068,7.068h28.531c3.903,0,7.068-3.164,7.068-7.068v-10.552c0-18.767,11.403-35.668,28.803-42.696  c30.96-12.506,51.858-36.235,51.858-63.454c0-12.211,4.848-23.908,13.482-32.542l20.882-20.883  C277.549,63.192,277.549,58.717,274.789,55.957z M71.737,100.28c-4.142,0-7.5-3.358-7.5-7.5c0-4.142,3.358-7.5,7.5-7.5  c4.142,0,7.5,3.358,7.5,7.5C79.237,96.923,75.879,100.28,71.737,100.28z M178.392,77.778c-0.782,4.067-4.715,6.732-8.782,5.946  c-8.159-1.57-16.631-2.367-25.18-2.367c-15.9,0-31.633,2.812-45.496,8.13c-0.884,0.34-1.792,0.5-2.685,0.5  c-3.017,0-5.859-1.832-7.004-4.815c-1.484-3.867,0.448-8.205,4.315-9.688c15.562-5.971,33.151-9.126,50.869-9.126  c9.499,0,18.925,0.888,28.016,2.639C176.513,69.779,179.175,73.711,178.392,77.778z" fill="#ff8a82"/>
<g>
</g>
<g>
</g>
<g>
</g>
<g>
</g>
<g>
</g>
<g>
</g>
<g>
</g>
<g>
</g>
<g>
</g>
<g>
</g>
<g>
</g>
<g>
</g>
<g>
</g>
<g>
</g>
<g>
</g>
</svg>
