<?xml version="1.0" encoding="iso-8859-1"?>
<!-- Generator: Adobe Illustrator 19.0.0, SVG Export Plug-In . SVG Version: 6.00 Build 0)  -->
<svg version="1.1" id="Capa_1" xmlns="http://www.w3.org/2000/svg" xmlns:xlink="http://www.w3.org/1999/xlink" x="0px" y="0px"
	 viewBox="0 0 512 512" style="enable-background:new 0 0 512 512;" xml:space="preserve">
<circle style="fill:#0078C8;" cx="256" cy="256" r="256"/>
<path style="fill:#0066AA;" d="M512,256c0-6.095-0.228-12.137-0.647-18.125L393.66,120.182l-40.235,40.226l-97.121-97.121
	L261,255.667l-198.972,1.895l98.927,98.927l-42.023,38.439l116.223,116.223C242.032,511.706,248.981,512,256,512
	C397.385,512,512,397.385,512,256z"/>
<path style="fill:#FFFFFF;" d="M367.281,209.189c-3.391-8.006-4.621-16.774-3.299-25.367c5.64-36.652,23.64-57.418,28.48-62.432
	c-4.954,4.783-25.295,22.413-61.143,28.271c-8.75,1.43-17.689,0.039-25.773-3.602c-1.771-0.798-3.565-1.554-5.381-2.267
	c-8.373-3.29-15.756-8.741-20.977-16.068c-20.875-29.296-22.772-55.886-22.893-62.735c-0.121,6.817-1.998,33.192-22.602,62.327
	c-5.281,7.468-12.811,12.99-21.339,16.297c-1.874,0.727-3.726,1.499-5.553,2.315c-8.264,3.691-17.393,5.113-26.317,3.602
	c-35.359-5.986-55.436-23.394-60.354-28.141c4.768,4.939,22.305,25.17,28.217,60.812c1.457,8.781,0.388,17.84-3.155,26.005
	c-0.741,1.707-1.443,3.435-2.106,5.182c-3.185,8.394-8.828,15.669-16.116,20.912c-29.498,21.217-56.357,23.132-63.243,23.254
	c7.044,0.124,34.986,2.125,65.275,24.743c6.847,5.113,12.073,12.049,15.333,19.949c0.346,0.838,0.701,1.672,1.065,2.501
	c3.522,8.014,4.622,16.903,3.351,25.563c-5.467,37.258-23.74,58.351-28.623,63.409c5.205-5.024,27.385-24.23,66.689-29.07
	c7.93-0.976,15.95,0.297,23.34,3.334c0.066,0.027,0.132,0.054,0.197,0.081c7.534,3.08,14.265,7.898,19.26,14.325
	c24.18,31.116,26.274,60.238,26.401,67.453c0.128-7.214,2.221-36.331,26.393-67.442c4.994-6.428,11.726-11.247,19.261-14.326
	c0.112-0.046,0.225-0.092,0.337-0.138c7.345-3.027,15.318-4.293,23.206-3.353c39.652,4.725,62.017,24.089,67.246,29.137
	c-4.954-5.132-23.693-26.769-28.856-65.051c-1.135-8.415,0.059-16.97,3.413-24.77c0.284-0.661,0.563-1.326,0.836-1.993
	c3.19-7.802,8.42-14.602,15.161-19.663c30.4-22.825,58.499-24.841,65.568-24.966c-6.959-0.123-34.295-2.073-64.144-23.904
	c-7.207-5.271-12.595-12.605-15.835-20.926C368.18,211.354,367.738,210.267,367.281,209.189z"/>
<path id="SVGCleanerId_0" style="fill:#FFFFFF;" d="M256.29,63.287c0,0,0.004,0.088,0.007,0.243
	c0.004-0.155,0.007-0.243,0.007-0.243H256.29z"/>
<path id="SVGCleanerId_1" style="fill:#FFFFFF;" d="M256.297,63.531c-0.006,0.268-0.012,0.756,0,1.459
	C256.309,64.287,256.303,63.799,256.297,63.531z"/>
<path id="SVGCleanerId_2" style="fill:#FFFFFF;" d="M256.026,451.546c0,0-0.004-0.088-0.007-0.243
	c-0.003,0.155-0.007,0.243-0.007,0.243H256.026z"/>
<path id="SVGCleanerId_3" style="fill:#FFFFFF;" d="M256.019,451.303c0.006-0.268,0.013-0.756,0-1.459
	C256.006,450.547,256.012,451.034,256.019,451.303z"/>
<path id="SVGCleanerId_4" style="fill:#FFFFFF;" d="M450.287,257.271c0,0-0.088,0.004-0.243,0.007
	c0.155,0.004,0.243,0.007,0.243,0.007V257.271z"/>
<path id="SVGCleanerId_5" style="fill:#FFFFFF;" d="M448.585,257.278c0.703,0.012,1.191,0.006,1.459,0
	C449.776,257.272,449.288,257.265,448.585,257.278z"/>
<path id="SVGCleanerId_6" style="fill:#FFFFFF;" d="M62.028,257.562c0,0,0.088-0.004,0.245-0.007
	c-0.156-0.004-0.245-0.007-0.245-0.007V257.562z"/>
<path id="SVGCleanerId_7" style="fill:#FFFFFF;" d="M62.273,257.555c0.269,0.006,0.755,0.012,1.457,0
	C63.028,257.542,62.542,257.549,62.273,257.555z"/>
<path id="SVGCleanerId_8" style="fill:#FFFFFF;" d="M393.494,394.752c-0.185-0.194-0.525-0.543-1.031-1.032
	C392.951,394.227,393.3,394.567,393.494,394.752z"/>
<path id="SVGCleanerId_9" style="fill:#FFFFFF;" d="M393.67,394.919c0,0-0.064-0.059-0.177-0.166
	c0.107,0.112,0.166,0.176,0.166,0.176L393.67,394.919z"/>
<path id="SVGCleanerId_10" style="fill:#FFFFFF;" d="M119.1,120.358c0.185,0.194,0.525,0.543,1.032,1.032
	C119.643,120.883,119.294,120.543,119.1,120.358z"/>
<path id="SVGCleanerId_11" style="fill:#FFFFFF;" d="M118.924,120.192c0,0,0.065,0.059,0.177,0.166
	c-0.107-0.112-0.166-0.176-0.166-0.176L118.924,120.192z"/>
<path id="SVGCleanerId_12" style="fill:#FFFFFF;" d="M393.66,120.182c0,0-0.059,0.065-0.166,0.176
	c0.112-0.107,0.177-0.166,0.177-0.166L393.66,120.182z"/>
<path id="SVGCleanerId_13" style="fill:#FFFFFF;" d="M393.494,120.358c-0.194,0.185-0.543,0.525-1.032,1.032
	C392.969,120.901,393.309,120.552,393.494,120.358z"/>
<path id="SVGCleanerId_14" style="fill:#FFFFFF;" d="M119.099,394.752c0.194-0.185,0.543-0.525,1.032-1.032
	C119.625,394.209,119.284,394.558,119.099,394.752z"/>
<path id="SVGCleanerId_15" style="fill:#FFFFFF;" d="M118.933,394.928c0,0,0.059-0.065,0.166-0.176
	c-0.112,0.107-0.176,0.166-0.176,0.166L118.933,394.928z"/>
<path style="fill:#E0E0E0;" d="M256.019,449.843c0.127-7.211,2.219-36.308,26.365-67.406c5.011-6.453,11.769-11.286,19.331-14.38
	c0.084-0.034,0.169-0.069,0.253-0.104c7.373-3.036,15.375-4.311,23.292-3.365c39.624,4.735,61.975,24.086,67.202,29.132
	c-4.952-5.13-23.678-26.751-28.849-65.003c-1.142-8.446,0.062-17.031,3.426-24.862c0.272-0.632,0.538-1.267,0.799-1.905
	c3.205-7.83,8.45-14.659,15.217-19.736c30.385-22.798,58.464-24.812,65.53-24.937c-6.955-0.123-34.27-2.071-64.103-23.874
	c-7.235-5.288-12.639-12.653-15.894-21.002c-0.415-1.063-0.844-2.119-1.287-3.168c-3.4-8.037-4.641-16.836-3.311-25.461
	c5.649-36.621,23.635-57.372,28.473-62.383c-4.865,4.696-24.563,21.779-59.211,27.942c-9.353,1.664-19.042,0.629-27.705-3.272
	c-1.771-0.798-3.565-1.554-5.381-2.267c-8.373-3.29-15.756-8.741-20.977-16.068c-20.875-29.296-22.772-55.886-22.893-62.735
	L256.019,449.843z"/>
<g>
	<path id="SVGCleanerId_0_1_" style="fill:#FFFFFF;" d="M256.29,63.287c0,0,0.004,0.088,0.007,0.243
		c0.004-0.155,0.007-0.243,0.007-0.243H256.29z"/>
</g>
<g>
	<path id="SVGCleanerId_1_1_" style="fill:#FFFFFF;" d="M256.297,63.531c-0.006,0.268-0.012,0.756,0,1.459
		C256.309,64.287,256.303,63.799,256.297,63.531z"/>
</g>
<g>
	<path id="SVGCleanerId_2_1_" style="fill:#FFFFFF;" d="M256.026,451.546c0,0-0.004-0.088-0.007-0.243
		c-0.003,0.155-0.007,0.243-0.007,0.243H256.026z"/>
</g>
<g>
	<path id="SVGCleanerId_3_1_" style="fill:#FFFFFF;" d="M256.019,451.303c0.006-0.268,0.013-0.756,0-1.459
		C256.006,450.547,256.012,451.034,256.019,451.303z"/>
</g>
<g>
	<path id="SVGCleanerId_4_1_" style="fill:#FFFFFF;" d="M450.287,257.271c0,0-0.088,0.004-0.243,0.007
		c0.155,0.004,0.243,0.007,0.243,0.007V257.271z"/>
</g>
<g>
	<path id="SVGCleanerId_5_1_" style="fill:#FFFFFF;" d="M448.585,257.278c0.703,0.012,1.191,0.006,1.459,0
		C449.776,257.272,449.288,257.265,448.585,257.278z"/>
</g>
<g>
	<path id="SVGCleanerId_6_1_" style="fill:#FFFFFF;" d="M62.028,257.562c0,0,0.088-0.004,0.245-0.007
		c-0.156-0.004-0.245-0.007-0.245-0.007V257.562z"/>
</g>
<g>
	<path id="SVGCleanerId_7_1_" style="fill:#FFFFFF;" d="M62.273,257.555c0.269,0.006,0.755,0.012,1.457,0
		C63.028,257.542,62.542,257.549,62.273,257.555z"/>
</g>
<g>
	<path id="SVGCleanerId_8_1_" style="fill:#FFFFFF;" d="M393.494,394.752c-0.185-0.194-0.525-0.543-1.031-1.032
		C392.951,394.227,393.3,394.567,393.494,394.752z"/>
</g>
<g>
	<path id="SVGCleanerId_9_1_" style="fill:#FFFFFF;" d="M393.67,394.919c0,0-0.064-0.059-0.177-0.166
		c0.107,0.112,0.166,0.176,0.166,0.176L393.67,394.919z"/>
</g>
<g>
	<path id="SVGCleanerId_10_1_" style="fill:#FFFFFF;" d="M119.1,120.358c0.185,0.194,0.525,0.543,1.032,1.032
		C119.643,120.883,119.294,120.543,119.1,120.358z"/>
</g>
<g>
	<path id="SVGCleanerId_11_1_" style="fill:#FFFFFF;" d="M118.924,120.192c0,0,0.065,0.059,0.177,0.166
		c-0.107-0.112-0.166-0.176-0.166-0.176L118.924,120.192z"/>
</g>
<g>
	<path id="SVGCleanerId_12_1_" style="fill:#FFFFFF;" d="M393.66,120.182c0,0-0.059,0.065-0.166,0.176
		c0.112-0.107,0.177-0.166,0.177-0.166L393.66,120.182z"/>
</g>
<g>
	<path id="SVGCleanerId_13_1_" style="fill:#FFFFFF;" d="M393.494,120.358c-0.194,0.185-0.543,0.525-1.032,1.032
		C392.969,120.901,393.309,120.552,393.494,120.358z"/>
</g>
<g>
	<path id="SVGCleanerId_14_1_" style="fill:#FFFFFF;" d="M119.099,394.752c0.194-0.185,0.543-0.525,1.032-1.032
		C119.625,394.209,119.284,394.558,119.099,394.752z"/>
</g>
<g>
	<path id="SVGCleanerId_15_1_" style="fill:#FFFFFF;" d="M118.933,394.928c0,0,0.059-0.065,0.166-0.176
		c-0.112,0.107-0.176,0.166-0.176,0.166L118.933,394.928z"/>
</g>
<circle style="fill:#B9EAFF;" cx="256.28" cy="257.07" r="39.15"/>
<path style="fill:#64AFFF;" d="M256.276,217.924c-0.025,0-0.049,0.002-0.074,0.002v78.286c0.025,0,0.049,0.002,0.074,0.002
	c21.619,0,39.145-17.526,39.145-39.145S277.896,217.924,256.276,217.924z"/>
<circle style="fill:#FFA5C8;" cx="192.65" cy="200.66" r="24.23"/>
<g>
	<circle style="fill:#FF8CB4;" cx="304.88" cy="186.71" r="17.357"/>
	<circle style="fill:#FF8CB4;" cx="280.88" cy="335.04" r="17.357"/>
</g>
<circle style="fill:#FFF091;" cx="203.06" cy="323.35" r="20.895"/>
<circle style="fill:#FFD06B;" cx="334.66" cy="282.13" r="20.895"/>
<g>
</g>
<g>
</g>
<g>
</g>
<g>
</g>
<g>
</g>
<g>
</g>
<g>
</g>
<g>
</g>
<g>
</g>
<g>
</g>
<g>
</g>
<g>
</g>
<g>
</g>
<g>
</g>
<g>
</g>
</svg>
