<?xml version="1.0" encoding="iso-8859-1"?>
<!-- Generator: Adobe Illustrator 19.0.0, SVG Export Plug-In . SVG Version: 6.00 Build 0)  -->
<svg version="1.1" id="Capa_1" xmlns="http://www.w3.org/2000/svg" xmlns:xlink="http://www.w3.org/1999/xlink" x="0px" y="0px"
	 viewBox="0 0 469.333 469.333" style="enable-background:new 0 0 469.333 469.333;" xml:space="preserve">
<circle style="fill:#303C42;" cx="352" cy="117.333" r="117.333"/>
<circle style="opacity:0.2;enable-background:new    ;" cx="352" cy="117.333" r="96"/>
<circle style="fill:#E57373;" cx="352" cy="117.333" r="96"/>
<circle style="opacity:0.15;enable-background:new    ;" cx="352" cy="117.333" r="10.667"/>
<circle style="opacity:0.15;enable-background:new    ;" cx="325.269" cy="117.333" r="10.667"/>
<circle style="opacity:0.15;enable-background:new    ;" cx="296.277" cy="125.355" r="10.667"/>
<circle style="opacity:0.15;enable-background:new    ;" cx="277.333" cy="142.549" r="10.667"/>
<circle style="opacity:0.15;enable-background:new    ;" cx="333.675" cy="90.667" r="10.667"/>
<circle style="opacity:0.15;enable-background:new    ;" cx="300.16" cy="98.517" r="10.667"/>
<circle style="opacity:0.15;enable-background:new    ;" cx="314.603" cy="72.789" r="10.667"/>
<circle style="opacity:0.15;enable-background:new    ;" cx="266.667" cy="117.333" r="10.667"/>
<circle style="opacity:0.15;enable-background:new    ;" cx="314.603" cy="45.184" r="10.667"/>
<circle style="opacity:0.15;enable-background:new    ;" cx="341.333" cy="42.667" r="10.667"/>
<circle style="opacity:0.15;enable-background:new    ;" cx="402.325" cy="60.608" r="10.667"/>
<circle style="opacity:0.15;enable-background:new    ;" cx="352" cy="64" r="10.667"/>
<circle style="opacity:0.15;enable-background:new    ;" cx="377.088" cy="60.928" r="10.667"/>
<circle style="opacity:0.15;enable-background:new    ;" cx="371.947" cy="36.523" r="10.667"/>
<circle style="opacity:0.15;enable-background:new    ;" cx="422.272" cy="78.421" r="10.667"/>
<circle style="opacity:0.15;enable-background:new    ;" cx="394.667" cy="85.333" r="10.667"/>
<circle style="opacity:0.15;enable-background:new    ;" cx="384" cy="117.333" r="10.667"/>
<circle style="opacity:0.15;enable-background:new    ;" cx="362.667" cy="149.333" r="10.667"/>
<circle style="opacity:0.15;enable-background:new    ;" cx="426.667" cy="106.667" r="10.667"/>
<circle style="opacity:0.15;enable-background:new    ;" cx="431.36" cy="133.888" r="10.667"/>
<circle style="opacity:0.15;enable-background:new    ;" cx="394.667" cy="181.333" r="10.667"/>
<circle style="opacity:0.15;enable-background:new    ;" cx="367.061" cy="198.528" r="10.667"/>
<circle style="opacity:0.15;enable-background:new    ;" cx="420.651" cy="166.528" r="10.667"/>
<circle style="opacity:0.15;enable-background:new    ;" cx="405.333" cy="129.493" r="10.667"/>
<circle style="opacity:0.15;enable-background:new    ;" cx="366.507" cy="96" r="10.667"/>
<circle style="opacity:0.15;enable-background:new    ;" cx="388.48" cy="155.221" r="10.667"/>
<circle style="opacity:0.15;enable-background:new    ;" cx="355.755" cy="176.064" r="10.667"/>
<circle style="opacity:0.15;enable-background:new    ;" cx="330.667" cy="149.333" r="10.667"/>
<circle style="opacity:0.15;enable-background:new    ;" cx="306.944" cy="149.333" r="10.667"/>
<circle style="opacity:0.15;enable-background:new    ;" cx="292.139" cy="66.517" r="10.667"/>
<circle style="opacity:0.15;enable-background:new    ;" cx="274.581" cy="87.851" r="10.667"/>
<circle style="opacity:0.15;enable-background:new    ;" cx="320" cy="181.333" r="10.667"/>
<circle style="opacity:0.15;enable-background:new    ;" cx="335.936" cy="197.397" r="10.667"/>
<circle style="opacity:0.15;enable-background:new    ;" cx="296.277" cy="172.373" r="10.667"/>
<path style="fill:#303C42;" d="M179.5,289.833c-16.625-16.646-43.708-16.646-60.333,0c-7.729,7.729-19.25,25.302-26.792,40.875
	c-8.254,17.043-11.046,29.928-9.089,39.451c-5.922,4.273-11.227,5.301-17.974,6.456c-9.583,1.646-21.542,3.698-34.604,16.76
	s-15.125,25.01-16.771,34.615c-1.479,8.625-2.542,14.865-10.813,23.135c-4.167,4.167-4.167,10.917,0,15.083
	c2.083,2.083,4.813,3.125,7.542,3.125s5.458-1.042,7.542-3.125c13.063-13.063,15.125-25.01,16.771-34.615
	c1.479-8.625,2.542-14.865,10.813-23.135s14.5-9.344,23.146-10.823c8.124-1.395,18.009-3.51,28.772-11.948
	c2.24,0.57,4.516,1.083,7.04,1.083c26.854,0,67.75-29.604,74.75-36.604c8.063-8.052,12.5-18.771,12.5-30.167
	C192,308.604,187.563,297.885,179.5,289.833z"/>
<path style="fill:#FAFAFA;" d="M164.417,335.083c-12.854,12.844-52.958,33.635-60.479,31.25
	c-3.438-8.448,17.458-48.563,30.313-61.417c4.167-4.156,9.625-6.24,15.083-6.24c5.458,0,10.917,2.083,15.083,6.24
	c4.021,4.031,6.25,9.385,6.25,15.083C170.667,325.698,168.438,331.052,164.417,335.083z"/>
<path style="fill:#303C42;" d="M311.167,268.5c-7.729,7.729-19.25,25.302-26.792,40.875c-8.712,17.991-11.595,31.534-8.934,41.161
	c-8.275,10.665-10.37,20.457-11.754,28.536c-1.479,8.625-2.542,14.865-10.813,23.135c-8.271,8.271-14.5,9.344-23.146,10.823
	c-9.583,1.646-21.542,3.698-34.604,16.76c-4.167,4.167-4.167,10.917,0,15.083c2.083,2.083,4.813,3.125,7.542,3.125
	s5.458-1.042,7.542-3.125c8.271-8.271,14.5-9.344,23.146-10.823c9.583-1.646,21.542-3.698,34.604-16.76s15.125-25.01,16.771-34.615
	c1.161-6.775,2.204-12.109,6.548-18.082c1.796,0.339,3.51,0.842,5.473,0.842c26.854,0,67.75-29.604,74.75-36.604
	c8.063-8.052,12.5-18.771,12.5-30.167c0-11.396-4.438-22.115-12.5-30.167C354.875,251.854,327.792,251.854,311.167,268.5z"/>
<path style="fill:#FAFAFA;" d="M356.417,313.75c-12.854,12.854-52.979,33.667-60.479,31.25
	c-3.438-8.448,17.458-48.563,30.313-61.417c4.167-4.156,9.625-6.24,15.083-6.24s10.917,2.083,15.083,6.24
	c4.021,4.031,6.25,9.385,6.25,15.083C362.667,304.365,360.438,309.719,356.417,313.75z"/>
<path style="fill:#303C42;" d="M10.667,320c2.729,0,5.458-1.042,7.542-3.125c8.271-8.271,14.5-9.344,23.146-10.823
	c9.583-1.646,21.542-3.698,34.604-16.76s15.125-25.01,16.771-34.615c1.161-6.775,2.204-12.109,6.548-18.082
	c1.796,0.339,3.51,0.842,5.473,0.842c26.854,0,67.75-29.604,74.75-36.604c8.063-8.052,12.5-18.771,12.5-30.167
	s-4.438-22.115-12.5-30.167c-16.625-16.646-43.708-16.646-60.333,0c-7.729,7.729-19.25,25.302-26.792,40.875
	c-8.712,17.991-11.595,31.534-8.934,41.161c-8.275,10.665-10.37,20.457-11.754,28.536c-1.479,8.625-2.542,14.865-10.813,23.135
	s-14.5,9.344-23.146,10.823c-9.583,1.646-21.542,3.698-34.604,16.76c-4.167,4.167-4.167,10.917,0,15.083
	C5.208,318.958,7.938,320,10.667,320z"/>
<path style="fill:#FAFAFA;" d="M134.25,155.583c4.167-4.156,9.625-6.24,15.083-6.24c5.458,0,10.917,2.083,15.083,6.24
	c4.021,4.031,6.25,9.385,6.25,15.083s-2.229,11.052-6.25,15.083c-12.854,12.844-52.958,33.615-60.479,31.25
	C100.5,208.552,121.396,168.438,134.25,155.583z"/>
<path style="opacity:0.1;enable-background:new    ;" d="M409.589,41.01C413.553,51.523,416,62.784,416,74.667
	c0,52.938-43.063,96-96,96c-21.69,0-41.497-7.501-57.589-19.677c13.695,36.319,48.534,62.344,89.589,62.344
	c52.938,0,96-43.063,96-96C448,86.086,432.771,58.552,409.589,41.01z"/>
<linearGradient id="SVGID_1_" gradientUnits="userSpaceOnUse" x1="-64.1222" y1="616.0132" x2="-48.9877" y2="608.9575" gradientTransform="matrix(21.3333 0 0 -21.3333 1430.1112 13315.2227)">
	<stop  offset="0" style="stop-color:#FFFFFF;stop-opacity:0.2"/>
	<stop  offset="1" style="stop-color:#FFFFFF;stop-opacity:0"/>
</linearGradient>
<path style="fill:url(#SVGID_1_);" d="M352,0c-64.688,0-117.333,52.635-117.333,117.333S287.313,234.667,352,234.667
	s117.333-52.635,117.333-117.333S416.688,0,352,0z M179.5,289.833c-16.625-16.646-43.708-16.646-60.333,0
	c-7.729,7.729-19.25,25.302-26.792,40.875c-8.254,17.043-11.046,29.928-9.089,39.451c-5.922,4.273-11.227,5.301-17.974,6.456
	c-9.583,1.646-21.542,3.698-34.604,16.76s-15.125,25.01-16.771,34.615c-1.479,8.625-2.542,14.865-10.813,23.135
	c-4.167,4.167-4.167,10.917,0,15.083c2.083,2.083,4.813,3.125,7.542,3.125s5.458-1.042,7.542-3.125
	c13.063-13.063,15.125-25.01,16.771-34.615c1.479-8.625,2.542-14.865,10.813-23.135s14.5-9.344,23.146-10.823
	c8.124-1.395,18.009-3.51,28.772-11.948c2.24,0.57,4.516,1.083,7.04,1.083c26.854,0,67.75-29.604,74.75-36.604
	c8.063-8.052,12.5-18.771,12.5-30.167C192,308.604,187.563,297.885,179.5,289.833z M311.167,268.5
	c-7.729,7.729-19.25,25.302-26.792,40.875c-8.712,17.991-11.595,31.534-8.934,41.161c-8.275,10.665-10.37,20.457-11.754,28.536
	c-1.479,8.625-2.542,14.865-10.813,23.135c-8.271,8.271-14.5,9.344-23.146,10.823c-9.583,1.646-21.542,3.698-34.604,16.76
	c-4.167,4.167-4.167,10.917,0,15.083c2.083,2.083,4.813,3.125,7.542,3.125s5.458-1.042,7.542-3.125
	c8.271-8.271,14.5-9.344,23.146-10.823c9.583-1.646,21.542-3.698,34.604-16.76s15.125-25.01,16.771-34.615
	c1.161-6.775,2.204-12.109,6.548-18.082c1.796,0.339,3.51,0.842,5.473,0.842c26.854,0,67.75-29.604,74.75-36.604
	c8.063-8.052,12.5-18.771,12.5-30.167c0-11.396-4.438-22.115-12.5-30.167C354.875,251.854,327.792,251.854,311.167,268.5z
	 M10.667,320c2.729,0,5.458-1.042,7.542-3.125c8.271-8.271,14.5-9.344,23.146-10.823c9.583-1.646,21.542-3.698,34.604-16.76
	s15.125-25.01,16.771-34.615c1.161-6.775,2.204-12.109,6.548-18.082c1.796,0.339,3.51,0.842,5.473,0.842
	c26.854,0,67.75-29.604,74.75-36.604c8.063-8.052,12.5-18.771,12.5-30.167s-4.438-22.115-12.5-30.167
	c-16.625-16.646-43.708-16.646-60.333,0c-7.729,7.729-19.25,25.302-26.792,40.875c-8.712,17.991-11.595,31.534-8.934,41.161
	c-8.275,10.665-10.37,20.457-11.754,28.536c-1.479,8.625-2.542,14.865-10.813,23.135s-14.5,9.344-23.146,10.823
	c-9.583,1.646-21.542,3.698-34.604,16.76c-4.167,4.167-4.167,10.917,0,15.083C5.208,318.958,7.938,320,10.667,320z"/>
<g>
</g>
<g>
</g>
<g>
</g>
<g>
</g>
<g>
</g>
<g>
</g>
<g>
</g>
<g>
</g>
<g>
</g>
<g>
</g>
<g>
</g>
<g>
</g>
<g>
</g>
<g>
</g>
<g>
</g>
</svg>
