<?xml version="1.0" encoding="iso-8859-1"?>
<!-- Generator: Adobe Illustrator 19.0.0, SVG Export Plug-In . SVG Version: 6.00 Build 0)  -->
<svg version="1.1" id="Capa_1" xmlns="http://www.w3.org/2000/svg" xmlns:xlink="http://www.w3.org/1999/xlink" x="0px" y="0px"
	 viewBox="0 0 512.001 512.001" style="enable-background:new 0 0 512.001 512.001;" xml:space="preserve">
<path style="fill:#FFEBDC;" d="M183.972,8.241v114.717H70.696V8.241C70.696,3.69,74.386,0,78.937,0h96.793
	C180.282,0,183.972,3.69,183.972,8.241z"/>
<polygon style="fill:#FFDBB1;" points="183.972,41.237 183.972,122.959 70.696,122.959 70.696,86.652 "/>
<path style="fill:#FFEBDC;" d="M462.651,426.244v49.15c0,6.52-5.286,11.806-11.806,11.806H335.918V369.1h69.589
	c3.709,0,7.345,0.35,10.858,1.04c2.679,0.505,5.285,1.205,7.809,2.091c5.594,1.926,10.796,4.697,15.453,8.169
	C453.596,390.816,462.651,407.474,462.651,426.244z"/>
<polygon style="fill:#FFDBB1;" points="390.336,369.103 376.941,487.203 335.919,487.203 335.919,369.103 "/>
<path style="fill:#20CFA2;" d="M373.959,343.896l-18.228,160.791c-0.472,4.166-3.997,7.313-8.189,7.313H92.756
	c-4.259,0-7.817-3.246-8.207-7.487L65.622,298.664l-1.827-19.854l6.378-39.357l-12.658-28.874l-1.827-19.842l-6.303-68.62
	c-0.333-3.63,1.757-7.047,5.14-8.404l151.501-60.735c5.036-2.019,10.615,1.295,11.251,6.683l7.477,63.298l2.316,19.651
	l-5.944,37.406l13.907,30.144l2.316,19.651l14.709,124.547l112.299-19.511C369.776,333.906,374.578,338.432,373.959,343.896z"/>
<g>
	<path style="fill:#239797;" d="M357.301,490.797l-1.572,13.889c-0.472,4.166-3.996,7.315-8.189,7.315H92.756
		c-4.259,0-7.817-3.246-8.207-7.487l-18.927-205.85l-1.827-19.854l-6.28-68.231l-1.827-19.842l-6.303-68.621
		c-0.333-3.629,1.757-7.047,5.139-8.403l14.929-5.987l5.671,61.808l1.827,19.842l6.28,68.231l1.827,19.854l19.616,213.337h252.627
		V490.797z"/>
	<polygon style="fill:#239797;" points="227.077,142.65 227.072,142.61 224.756,122.959 55.689,190.736 57.506,210.477 	"/>
	<polygon style="fill:#239797;" points="63.786,278.708 63.795,278.809 65.622,298.664 237.351,229.812 235.04,210.201 	"/>
</g>
<polygon style="fill:#D4FD9A;" points="235.035,210.161 63.795,278.809 57.515,210.578 227.072,142.61 "/>
<g>
	<polygon style="fill:#8AEE90;" points="83.232,257.606 78.142,202.31 57.515,210.578 63.795,278.809 84.422,270.54 	"/>
	<path style="fill:#8AEE90;" d="M326.009,464.338c-0.291,0-0.584-0.017-0.88-0.05c-4.24-0.481-7.288-4.307-6.807-8.547l9.919-87.502
		c0.48-4.24,4.309-7.28,8.547-6.807c4.24,0.481,7.288,4.307,6.807,8.547l-9.919,87.502
		C333.23,461.426,329.887,464.338,326.009,464.338z"/>
</g>
<path style="fill:#20CFA2;" d="M416.365,370.14V487.2h-15.453V369.1h4.595C409.215,369.1,412.852,369.45,416.365,370.14z"/>
<g>
	<path style="fill:#FFDBB1;" d="M107.7,46.649c-4.267,0-7.726-3.459-7.726-7.726v-1.649c0-4.268,3.459-7.726,7.726-7.726
		s7.726,3.459,7.726,7.726v1.649C115.426,43.19,111.967,46.649,107.7,46.649z"/>
	<path style="fill:#FFDBB1;" d="M127.331,60.432c-4.267,0-7.726-3.459-7.726-7.726v-1.649c0-4.268,3.459-7.726,7.726-7.726
		s7.726,3.459,7.726,7.726v1.649C135.057,56.974,131.598,60.432,127.331,60.432z"/>
	<path style="fill:#FFDBB1;" d="M156.322,36.129c-4.267,0-7.726-3.459-7.726-7.726v-1.65c0-4.268,3.459-7.726,7.726-7.726
		s7.726,3.459,7.726,7.726v1.65C164.048,32.671,160.589,36.129,156.322,36.129z"/>
</g>
<path style="fill:#20CFA2;" d="M439.626,380.401V487.2h-15.453V372.232C429.768,374.158,434.97,376.929,439.626,380.401z"/>
<g>
</g>
<g>
</g>
<g>
</g>
<g>
</g>
<g>
</g>
<g>
</g>
<g>
</g>
<g>
</g>
<g>
</g>
<g>
</g>
<g>
</g>
<g>
</g>
<g>
</g>
<g>
</g>
<g>
</g>
</svg>
