<?xml version="1.0" encoding="iso-8859-1"?>
<!-- Generator: Adobe Illustrator 19.0.0, SVG Export Plug-In . SVG Version: 6.00 Build 0)  -->
<svg version="1.1" id="Capa_1" xmlns="http://www.w3.org/2000/svg" xmlns:xlink="http://www.w3.org/1999/xlink" x="0px" y="0px"
	 viewBox="0 0 512 512" style="enable-background:new 0 0 512 512;" xml:space="preserve">
<circle style="fill:#FFF091;" cx="256" cy="256" r="256"/>
<path style="fill:#FFD06B;" d="M512,256c0-16.266-1.535-32.171-4.435-47.595l-51.31-51.31L433,165.667l-61.375-62.062
	L85.564,399.588L189.136,503.16C210.453,508.913,232.864,512,256,512C397.385,512,512,397.385,512,256z"/>
<path style="fill:#FF8CB4;" d="M456.255,157.095H179.697c-78.159,0-135.631,73.268-117.016,149.178l22.883,93.316
	C85.564,399.588,383.661,389.548,456.255,157.095z"/>
<path style="fill:#FF5F96;" d="M456.255,157.095H255.357v203.839C335.751,328.208,421.639,267.937,456.255,157.095z"/>
<path style="fill:#FFB4C8;" d="M96.3,398.89c37.619-3.094,166.492-19.232,262.895-98.598
	c-34.276,13.848-83.364,28.225-135.191,25.497C153.964,322.103,111.058,358.701,96.3,398.89z"/>
<path style="fill:#FF96B4;" d="M255.357,325.457v35.465c35.143-14.307,71.336-33.871,103.838-60.63
	C331.931,311.308,295.29,322.647,255.357,325.457z"/>
<circle style="fill:#FFFFFF;" cx="305.45" cy="168.88" r="84.52"/>
<path style="fill:#E0E0E0;" d="M305.446,84.361c-0.429,0-0.852,0.026-1.279,0.032v168.968c0.428,0.006,0.85,0.032,1.279,0.032
	c46.677,0,84.516-37.839,84.516-84.516S352.123,84.361,305.446,84.361z"/>
<path style="fill:#999999;" d="M305.446,261.893c-51.289,0-93.016-41.727-93.016-93.016s41.727-93.016,93.016-93.016
	s93.016,41.727,93.016,93.016S356.735,261.893,305.446,261.893z M305.446,92.861c-41.916,0-76.016,34.101-76.016,76.016
	s34.101,76.016,76.016,76.016s76.016-34.101,76.016-76.016S347.361,92.861,305.446,92.861z"/>
<path style="fill:#808080;" d="M305.446,75.861c-0.428,0-0.853,0.01-1.279,0.016v17.016c0.427-0.007,0.85-0.032,1.279-0.032
	c41.916,0,76.016,34.101,76.016,76.016s-34.101,76.016-76.016,76.016c-0.429,0-0.852-0.025-1.279-0.032v17.016
	c0.426,0.006,0.852,0.016,1.279,0.016c51.289,0,93.016-41.727,93.016-93.016S356.735,75.861,305.446,75.861z"/>
<circle style="fill:#FF4682;" cx="311.91" cy="134.87" r="17"/>
<path style="fill:#D72D73;" d="M311.912,117.869c-2.793,0-5.421,0.686-7.746,1.879v30.247c2.325,1.193,4.953,1.879,7.746,1.879
	c9.39,0,17.003-7.612,17.003-17.003S321.303,117.869,311.912,117.869z"/>
<circle style="fill:#FF5F96;" cx="272.12" cy="195.59" r="17"/>
<circle style="fill:#82CD64;" cx="272.12" cy="151.87" r="8.501"/>
<circle style="fill:#64A54B;" cx="337.92" cy="174.31" r="21.274"/>
<g>
</g>
<g>
</g>
<g>
</g>
<g>
</g>
<g>
</g>
<g>
</g>
<g>
</g>
<g>
</g>
<g>
</g>
<g>
</g>
<g>
</g>
<g>
</g>
<g>
</g>
<g>
</g>
<g>
</g>
</svg>
