<?xml version="1.0" encoding="iso-8859-1"?>
<!-- Generator: Adobe Illustrator 19.0.0, SVG Export Plug-In . SVG Version: 6.00 Build 0)  -->
<svg version="1.1" id="Layer_1" xmlns="http://www.w3.org/2000/svg" xmlns:xlink="http://www.w3.org/1999/xlink" x="0px" y="0px"
	 viewBox="0 0 512.001 512.001" style="enable-background:new 0 0 512.001 512.001;" xml:space="preserve">
<path style="fill:#EBD37A;" d="M332.314,409.243L206.531,257.934v27.352c0,0.739-0.375,1.417-0.983,1.839
	c-9.306,6.455-15.271,17.388-14.776,29.68c0.692,17.202,14.365,31.47,31.526,32.837c0.946,0.076,1.884,0.108,2.814,0.108v2.059
	c0,36.989,21.483,71.363,54.728,87.572l30.529,14.886c0.068,0.033,0.136,0.066,0.204,0.099c13.165,6.343,21.74,19.433,21.74,34.046
	l0,0c0,11.021,8.934,19.957,19.957,19.957h10.174c11.021,0,19.957-8.934,19.957-19.957
	C382.4,454.979,362.741,423.904,332.314,409.243z"/>
<path style="fill:#E2C35A;" d="M329.111,406.668l-125.784-151.31v27.352c0,0.739-0.375,1.417-0.983,1.839
	c-8.889,6.165-14.714,16.421-14.789,28.041l0.013,1.641c0.692,17.202,14.365,31.47,31.526,32.837
	c0.946,0.076,1.884,0.108,2.814,0.108h9.207c3.086,5.448,7.027,10.414,11.71,14.679c0.939,0.857,1.908,1.684,2.901,2.48
	c4.684,22.505,19.619,42.203,40.667,52.466l30.527,14.885c16.263,7.928,33.648,12.228,51.736,12.817
	C359.94,428.361,346.23,414.915,329.111,406.668z"/>
<path style="fill:#D5A150;" d="M468.677,286.934c2.892,9.347,4.451,19.28,4.458,29.576c0.034,53.977-41.978,97.912-95.909,100.151
	c-17.299,0.718-33.676-2.953-48.11-9.991l-30.526-14.884c-16.27-7.933-26.594-24.45-26.594-42.553l0,0v-62.298h196.681V286.934z"/>
<path style="fill:#C98A2E;" d="M468.677,286.934H271.995v62.298c0,12.125,4.649,23.523,12.601,32.12
	c1.148,1.241,2.798,1.913,4.483,1.782c0.009-0.001,0.018-0.001,0.027-0.002c10.061-0.805,19.272-3.455,27.382-7.877
	c2.572-1.396,5.021-2.925,7.343-4.585c2.609,1.081,5.29,2.005,8.017,2.758l1.158,0.297c5.389,1.282,10.883,1.932,16.332,1.932
	c4.065,0,8.093-0.355,11.971-1.056l0.441-0.082c10.157-1.977,19.235-5.797,26.988-11.357c2.73-1.937,5.286-4.034,7.631-6.261
	c3.29,0.706,6.671,1.175,10.095,1.4l0.012,0.001c1.306,0.101,2.651,0.152,4.003,0.152c3.594,0,7.351-0.354,11.435-1.074
	c5.673-0.991,10.716-2.504,15.407-4.624c14.18-6.096,25.747-16.718,32.653-29.442l3.162-6.807
	C473.128,306.214,471.568,296.281,468.677,286.934z"/>
<path style="fill:#D5A150;" d="M284.113,349.938c-3.675,0-7.535-0.68-11.471-2.02c-3.961-1.346-7.787-3.64-11.075-6.635
	c-4.234-3.854-7.334-8.749-8.968-14.152l-2.298-7.602l-7.863-1.117c-14.353-2.04-26.499-12.301-30.941-26.142l-3.485-10.857
	l-11.119,2.524c-2.491,0.567-5.064,0.853-7.648,0.853c-0.397,0-0.797-0.008-1.198-0.02c-9.74-0.325-18.764-4.582-24.764-11.681
	l-8.206-9.71l-9.532,8.412c-5.87,5.18-13.566,8.033-21.669,8.033c-1.633,0-3.296-0.117-4.942-0.347
	c-10.05-1.389-19.191-7.161-23.879-15.066l-6.335-10.684l-10.696,6.317c-1.577,0.932-3.533,1.72-5.978,2.406
	c-0.855,0.23-2.095,0.549-3.21,0.711c-1.241,0.154-2.531,0.246-3.836,0.276c-0.403,0.013-0.674,0.017-0.948,0.017
	c-4.789,0-10.033-1.349-15.182-3.902c-1.439-0.807-2.846-1.677-4.185-2.591l-0.343-0.238c-0.436-0.303-0.874-0.588-1.29-0.929
	c-0.561-0.472-1.205-1.037-1.831-1.613c-1.392-1.296-2.359-2.27-3.147-3.176c-0.984-1.231-1.898-2.492-2.72-3.752
	c-0.342-0.528-0.68-1.062-0.997-1.609c-0.305-0.604-0.591-1.208-0.859-1.811c-0.564-1.268-1.046-2.531-1.437-3.763
	c-0.591-2.16-0.89-4.536-0.868-6.884l0.099-10.106l-9.87-2.169c-2.152-0.472-4.31-1.286-6.419-2.418
	c-1.086-0.681-2.18-1.457-3.256-2.312c-0.57-0.453-1.139-0.928-1.702-1.426c-0.213-0.204-0.573-0.603-0.922-0.991l-0.334-0.37
	c-0.966-1.092-1.993-2.377-2.97-3.732c-0.788-1.19-1.544-2.66-2.312-4.189c-0.358-0.727-0.747-1.567-1.119-2.424
	c-0.069-0.163-0.242-0.715-0.408-1.249l-0.197-0.623c-0.513-1.687-0.961-3.424-1.327-5.167c-2.193-14.101,3.918-24.418,9.847-28.985
	l8.897-6.851l-5.905-9.551c-1.3-2.103-2.249-4.137-2.824-6.048c-0.754-2.781-1.164-5.321-1.221-7.553
	c-0.115-5.725,1.253-11.651,3.854-16.618c0.808-1.559,1.552-2.863,2.29-4.014c0.874-1.208,1.799-2.374,2.749-3.473l0.171-0.203
	c1.447-1.743,3.315-3.394,5.877-5.196l0.193-0.138c1.587-1.161,3.639-2.207,6.27-3.198c1.114-0.412,2.136-0.731,3.056-0.954
	c1.099-0.225,2.197-0.388,3.269-0.488l11.92-1.1l-0.638-11.954c-0.227-4.256,0.749-8.895,2.822-13.429
	c1.257-2.503,2.64-4.722,4.115-6.597c2.056-2.439,3.976-4.348,5.861-5.829c2.695-2.008,4.992-3.432,7.022-4.351
	c2.623-1.161,5.035-1.978,7.28-2.458c2.282-0.431,4.552-0.65,6.751-0.65l0.545,0.004c1.938,0.043,4.161,0.383,6.532,1.007
	l11.864,3.125l3.293-11.818c1.131-4.058,3.396-8.031,6.733-11.808c1.701-1.799,3.624-3.475,5.719-4.984
	c2.021-1.376,4.397-2.646,7.062-3.777c4.185-1.68,8.538-2.531,12.94-2.531c5.458,0,10.693,1.317,15.141,3.808l10.782,6.039
	l6.114-10.74c4.667-8.198,13.349-14.082,23.225-15.74c2.006-0.337,4.034-0.508,6.034-0.508c8.023,0,15.51,2.669,21.083,7.513
	l9.539,8.296l8.144-9.668c1.367-1.622,2.958-3.1,4.73-4.392c1.903-1.404,3.944-2.61,6.112-3.625
	c4.63-1.953,9.244-2.943,13.717-2.943c0.294,0,1.209,0.019,1.209,0.019c4.773,0.017,9.653,1.162,14.513,3.404
	c2.139,1.089,4.138,2.362,5.945,3.788c1.776,1.386,3.316,2.915,4.632,4.587l7.817,9.931l9.809-7.968
	c5.393-4.381,12.52-6.793,20.067-6.793c2.42,0,4.873,0.252,7.289,0.747c9.847,1.99,18.306,8.19,22.663,16.592l5.705,11.004
	l11.027-5.661c4.087-2.099,8.856-3.208,13.793-3.208c4.927,0,9.781,1.073,14.424,3.187c9.396,4.274,16.495,12.494,18.532,21.456
	l2.731,12.015l12.041-2.611c1.097-0.238,2.236-0.419,3.384-0.538c0.495-0.046,1.19-0.073,1.987-0.073
	c0.372,0,0.746,0.007,1.121,0.017c2.888,0.128,5.087,0.435,6.91,0.966c2.953,0.859,5.248,1.759,7.214,2.829
	c2.074,1.195,4.696,2.807,6.837,4.772c4.273,3.837,7.49,8.386,9.402,13.245c1.099,2.981,1.66,5.065,1.873,6.957
	c0.305,2.511,0.329,4.844,0.085,7.043l-1.262,11.375l11.229,2.207c2.159,0.424,4.379,1.153,6.598,2.167
	c1.77,0.788,3.607,2.003,6.25,4.11c0.777,0.609,1.543,1.356,2.492,2.415c1.048,1.158,2.026,2.347,2.948,3.583l0.126,0.165
	c0.491,0.636,1.112,1.756,1.77,2.943l0.246,0.442c0.748,1.419,1.455,2.799,1.944,4.08c2.179,5.861,2.928,11.815,2.126,17.109
	c-0.216,1.496-0.49,2.879-0.825,4.195c-0.223,0.9-0.742,2.156-1.175,3.191c-1.103,2.488-2.093,4.177-3.202,5.471l-7.538,8.782
	l8.212,8.154c0.785,0.779,1.547,1.641,2.267,2.56c0.349,0.449,0.695,0.915,1.028,1.395l1.242,1.868
	c1.358,2.157,2.38,4.205,3.122,6.256c1.768,4.984,2.355,10.212,1.722,15.469l-0.022,0.206c-0.547,5.262-2.505,10.723-5.52,15.378
	c-1.239,1.869-2.867,3.793-4.774,5.619c-1.74,1.535-3.617,2.842-5.585,3.883l-10.129,5.362l4.511,10.535
	c0.735,1.715,1.279,3.863,1.665,6.566c0.321,2.271,0.083,5.1-0.175,7.367c-0.4,2.456-1.173,5.122-2.303,7.929
	c-0.656,1.392-1.389,2.788-2.184,4.153c-0.375,0.644-0.764,1.283-1.168,1.918c-0.433,0.59-0.888,1.169-1.352,1.746
	c-1.044,1.298-2.167,2.57-3.326,3.77c-0.892,0.882-2.108,1.828-3.296,2.748c-1.313,0.973-2.401,1.762-3.331,2.288
	c-1.293,0.692-2.61,1.318-3.913,1.86c-1.109,0.445-2.387,0.961-3.265,1.172c-1.273,0.304-2.566,0.542-3.818,0.701
	c-1.218,0.155-2.421,0.239-3.578,0.252c-0.004,0-0.008,0-0.012,0c-0.907,0-2.026-0.15-3.016-0.29l-11.697-1.658l-2.263,11.596
	c-1.759,9.01-9.299,17.553-19.21,21.766l-0.317,0.14c-2.157,0.988-4.543,1.691-7.51,2.208c-2.206,0.388-4.061,0.577-5.692,0.577
	c-0.505,0-1.008-0.018-1.508-0.059l-0.237-0.017c-2.505-0.159-4.935-0.559-7.223-1.19c-1.79-0.502-3.837-1.382-6.028-2.602
	l-10.759-5.987l-6.101,10.696c-1.095,1.919-2.431,3.77-3.97,5.5c-1.516,1.621-3.3,3.159-5.304,4.574
	c-3.87,2.793-8.536,4.706-13.977,5.766c-1.868,0.338-3.949,0.524-6.033,0.524c-2.849,0-5.742-0.345-8.603-1.026
	c-4.498-1.242-8.697-3.351-12.152-6.105l-9.834-7.84l-7.736,9.917c-2.721,3.488-6.25,6.42-10.487,8.713
	c-3.989,2.18-8.71,3.491-14.081,3.92C285.682,349.908,284.894,349.938,284.113,349.938z"/>
<path style="fill:#E1B872;" d="M432.789,81.047c-1.211-2.448-2.399-4.317-3.632-5.717l-7.575-8.598l-2.731-12.015
	c-2.037-8.962-9.136-17.182-18.532-21.456c-4.644-2.115-9.497-3.187-14.424-3.187c-4.935,0-9.705,1.109-13.793,3.208l-11.027,5.661
	l-5.705-11.004c-4.358-8.402-12.816-14.602-22.663-16.592c-2.416-0.495-4.87-0.747-7.289-0.747c-7.548,0-14.674,2.413-20.067,6.793
	l-9.809,7.968l-7.817-9.931c-1.317-1.672-2.856-3.201-4.633-4.587c-1.806-1.426-3.807-2.699-5.945-3.788
	c-4.858-2.242-9.74-3.387-14.513-3.404c0,0-0.916-0.019-1.209-0.019c-4.473,0-9.087,0.989-13.717,2.943
	c-2.169,1.014-4.208,2.222-6.112,3.625c-1.773,1.292-3.364,2.77-4.73,4.392l-8.144,9.668l-9.539-8.296
	c-5.572-4.845-13.059-7.513-21.083-7.513c-1.999,0-4.028,0.17-6.034,0.508c-9.876,1.657-18.559,7.542-23.225,15.74l-6.114,10.74
	L151.945,29.4c-4.448-2.491-9.683-3.808-15.141-3.808c-4.402,0-8.755,0.851-12.94,2.531c-2.666,1.131-5.041,2.401-7.062,3.777
	c-2.095,1.509-4.018,3.186-5.719,4.984c-3.337,3.778-5.602,7.75-6.733,11.808l-3.293,11.818l-11.864-3.125
	c-2.372-0.624-4.595-0.964-6.532-1.007l-0.545-0.004c-2.198,0-4.468,0.219-6.751,0.65c-2.245,0.479-4.657,1.297-7.28,2.458
	c-2.03,0.918-4.328,2.342-7.022,4.351c-1.887,1.481-3.805,3.39-5.861,5.829c-1.475,1.875-2.858,4.094-4.115,6.597
	c-2.074,4.533-3.049,9.174-2.822,13.429l0.638,11.954l-11.92,1.1c-1.072,0.099-2.17,0.264-3.269,0.488
	c-0.92,0.223-1.942,0.543-3.056,0.954c-2.631,0.989-4.683,2.037-6.27,3.198l-0.193,0.138c-2.562,1.802-4.43,3.453-5.877,5.196
	l-0.171,0.203c-0.952,1.097-1.875,2.264-2.749,3.473c-0.738,1.151-1.481,2.454-2.29,4.014c-2.601,4.968-3.968,10.892-3.854,16.618
	c0.057,2.232,0.467,4.772,1.221,7.553c0.574,1.911,1.524,3.946,2.824,6.048l5.905,9.551l-8.897,6.851
	c-5.929,4.568-12.04,14.884-9.847,28.985c0.367,1.743,0.814,3.479,1.327,5.167l0.197,0.623c0.167,0.534,0.339,1.086,0.408,1.249
	c0.372,0.856,0.76,1.697,1.119,2.424c0.768,1.529,1.524,3,2.312,4.19c0.977,1.355,2.003,2.639,2.97,3.732l0.334,0.37
	c0.348,0.387,0.708,0.787,0.922,0.991c0.563,0.498,1.131,0.973,1.702,1.426c1.075,0.854,2.169,1.631,3.256,2.312
	c2.109,1.132,4.267,1.946,6.419,2.418l8.144,1.79c0.115-0.04,0.227-0.08,0.368-0.131c1.23-0.436,2.426-0.927,3.557-1.46
	c1.008-0.503,2.087-1.192,2.827-1.678c2.108-1.417,3.72-2.776,4.927-4.154l8.188-9.341l9.355,8.171
	c6.923,6.046,17.41,8.674,27.391,6.854c1.636-0.295,3.252-0.703,4.804-1.213c7.698-2.531,14.118-7.644,18.076-14.399l6.428-10.969
	l10.829,6.66c7.918,4.87,17.82,6.096,27.174,3.362c0.385-0.114,0.766-0.23,1.144-0.355c2.454-0.807,4.809-1.883,6.999-3.199
	l9.775-5.871l6.702,9.225c8.544,11.76,23.287,17.715,37.559,15.17l7.818-1.395l4.558,6.505c3.24,4.624,7.713,8.304,12.939,10.644
	c4.059,1.819,8.41,2.802,12.593,2.844c4.157,0.045,8.036-0.515,11.529-1.663c0.742-0.244,1.481-0.52,2.186-0.815
	c4.967-2.086,9.043-4.805,12.152-8.122c3.309-3.503,5.746-7.39,7.241-11.553l4.251-11.837l11.79,4.376
	c4.143,1.538,8.791,2.229,13.451,2.005c2.93-0.247,5.786-0.823,8.493-1.713c1.979-0.651,3.899-1.478,5.567-2.382
	c4.837-2.705,8.672-5.98,11.477-9.843c1.463-1.97,2.677-3.989,3.611-6.002c0.922-2.124,1.613-4.299,2.055-6.465l2.454-12.066
	l12.091,2.327c2.463,0.474,4.683,0.671,6.539,0.589c2.371-0.116,4.804-0.494,7.233-1.126l0.23-0.058
	c0.488-0.117,0.971-0.257,1.45-0.414c1.549-0.51,3.253-1.267,5.228-2.325c2.656-1.418,4.703-2.83,6.445-4.443l0.258-0.233
	c8.1-7.097,12.594-17.567,11.451-26.676l-1.473-11.723l11.63-2.078c0.984-0.176,2.094-0.383,2.956-0.667
	c0.003-0.001,0.008-0.002,0.011-0.003c1.096-0.373,2.213-0.829,3.321-1.356c1.139-0.543,2.293-1.173,3.407-1.859
	c0.767-0.475,1.822-1.363,2.736-2.134c1.07-0.922,2.124-1.927,3.137-2.989c0.72-0.79,1.506-1.88,2.45-3.214
	c0.84-1.245,1.701-2.524,2.273-3.64c0.726-1.501,1.396-3.061,1.982-4.62c0.26-0.693,0.512-1.386,0.739-2.081
	c0.185-0.729,0.355-1.457,0.51-2.186c0.328-1.545,0.59-3.1,0.777-4.627c0.196-3.02,0.099-5.793-0.289-8.252
	C434.461,85.866,433.803,83.104,432.789,81.047z"/>
<path style="fill:#D5A150;" d="M263.899,195.459h-7.3c-18.875,0-34.232-15.357-34.232-34.232c0-17.778,14.463-32.24,32.24-32.24
	c9.67,0,17.536-7.867,17.536-17.536v-1.217c0-9.67-7.867-17.536-17.536-17.536c-18.875,0-34.232-15.356-34.232-34.232V32.61
	c0-4.61,3.738-8.348,8.348-8.348s8.348,3.738,8.348,8.348v25.855c0,9.67,7.866,17.536,17.536,17.536
	c18.875,0,34.232,15.356,34.232,34.232v1.217c0,18.875-15.357,34.232-34.232,34.232c-8.572,0-15.545,6.973-15.545,15.545
	c0,9.67,7.866,17.536,17.536,17.536h7.3c4.61,0,8.348,3.738,8.348,8.348S268.509,195.459,263.899,195.459z"/>
<path style="fill:#E1B872;" d="M477.364,246.08h-14.491c-18.875,0-34.232-15.356-34.232-34.232c0-9.67-7.867-17.536-17.536-17.536
	h-1.217c-9.67,0-17.536,7.866-17.536,17.536c0,17.778-14.463,32.24-32.24,32.24c-18.875,0-34.232-15.356-34.232-34.232v-7.302
	c0-4.61,3.738-8.348,8.348-8.348s8.348,3.738,8.348,8.348v7.302c0,9.67,7.866,17.536,17.536,17.536
	c8.572,0,15.545-6.973,15.545-15.545c0-18.875,15.356-34.232,34.232-34.232h1.217c18.875,0,34.232,15.356,34.232,34.232
	c0,9.67,7.866,17.536,17.536,17.536h14.491c4.61,0,8.348,3.738,8.348,8.348S481.974,246.08,477.364,246.08z"/>
<g>
	<path style="fill:#D5A150;" d="M170.688,192.265c-2.136,0-4.272-0.815-5.902-2.444c-3.26-3.26-3.26-8.546,0-11.806l5.162-5.162
		c6.837-6.837,6.837-17.962,0-24.8c-6.062-6.061-15.923-6.061-21.984,0c-6.466,6.466-15.062,10.026-24.205,10.026
		s-17.74-3.561-24.205-10.026l-0.86-0.86c-6.466-6.466-10.026-15.062-10.026-24.205s3.561-17.74,10.026-24.205
		c6.837-6.837,6.837-17.962,0-24.8c-3.26-3.26-3.26-8.546,0-11.805c3.26-3.26,8.546-3.26,11.805,0
		c13.347,13.347,13.347,35.063,0,48.411c-3.312,3.312-5.137,7.716-5.137,12.399c0,4.684,1.824,9.088,5.137,12.4l0.86,0.86
		c3.312,3.312,7.716,5.137,12.399,5.137c4.684,0,9.088-1.824,12.4-5.137c12.571-12.571,33.024-12.571,45.595,0
		c13.346,13.348,13.346,35.064,0,48.411l-5.161,5.162C174.961,191.449,172.824,192.265,170.688,192.265z"/>
	<path style="fill:#D5A150;" d="M369.521,137.782c-6.888,0-13.605-2.081-19.391-6.082c-7.522-5.199-12.568-13.016-14.21-22.01
		l-1.311-7.182c-0.828-4.536,2.177-8.883,6.713-9.711c4.533-0.825,8.883,2.176,9.711,6.713l1.311,7.182
		c0.841,4.608,3.427,8.613,7.28,11.275c3.852,2.664,8.513,3.666,13.121,2.826c4.085-0.746,7.634-3.037,9.995-6.453
		c2.361-3.416,3.25-7.546,2.504-11.631c-1.639-8.978,0.243-18.153,5.299-25.834c5.176-7.863,12.99-13.099,22.006-14.744
		c4.539-0.828,8.883,2.177,9.711,6.713c0.828,4.536-2.177,8.883-6.713,9.711c-4.488,0.819-8.416,3.483-11.06,7.501
		c-2.643,4.016-3.672,8.993-2.82,13.655c1.547,8.471-0.298,17.038-5.195,24.123c-4.896,7.085-12.259,11.837-20.73,13.384
		C373.667,137.594,371.586,137.782,369.521,137.782z"/>
</g>
<path style="fill:#E1B872;" d="M318.761,327.294c-4.61,0-8.348-3.738-8.348-8.348v-1.217c0-9.67-7.867-17.536-17.536-17.536
	c-17.778,0-32.24-14.463-32.24-32.24c0-18.875,15.356-34.232,34.232-34.232h7.3c4.61,0,8.348,3.738,8.348,8.348
	c0,4.61-3.738,8.348-8.348,8.348h-7.3c-9.67,0-17.536,7.866-17.536,17.536c0,8.572,6.973,15.545,15.545,15.545
	c18.875,0,34.232,15.356,34.232,34.232v1.217C327.109,323.557,323.371,327.294,318.761,327.294z"/>
<g>
</g>
<g>
</g>
<g>
</g>
<g>
</g>
<g>
</g>
<g>
</g>
<g>
</g>
<g>
</g>
<g>
</g>
<g>
</g>
<g>
</g>
<g>
</g>
<g>
</g>
<g>
</g>
<g>
</g>
</svg>
