<?xml version='1.0' encoding='iso-8859-1'?>
<!DOCTYPE svg PUBLIC '-//W3C//DTD SVG 1.1//EN' 'http://www.w3.org/Graphics/SVG/1.1/DTD/svg11.dtd'>
<svg version="1.1" xmlns="http://www.w3.org/2000/svg" viewBox="0 0 301.276 301.276" xmlns:xlink="http://www.w3.org/1999/xlink" enable-background="new 0 0 301.276 301.276">
  <g>
    <path d="m193.445,168.427h-2.191l-25.36,79.116-7.987-55.058 8.483-16.451c0.834-1.617 0.765-3.552-0.182-5.106-0.947-1.554-2.635-2.502-4.455-2.502h-22.24c-1.82,0-3.508,0.948-4.455,2.502-0.947,1.554-1.016,3.488-0.182,5.106l8.483,16.451-7.98,55.051-25.361-79.11h-2.186c-29.042,0-52.585,23.543-52.585,52.585v67.741c0,6.916 5.607,12.523 12.523,12.523h165.736c6.916,0 12.523-5.607 12.523-12.523v-67.741c-2.84217e-14-29.041-23.543-52.584-52.584-52.584z"/>
    <path d="m107.534,90.351c-0.004,0.298-0.018,0.592-0.018,0.89 0,30.152 19.305,54.595 43.12,54.595s43.12-24.443 43.12-54.595c0-0.297-0.014-0.59-0.018-0.886-10.141,7.843-25.438,12.672-43.099,12.672-17.666-1.42109e-14-32.964-4.83-43.105-12.676z"/>
    <path d="m95.903,59.463l10.63,7.149c0.153,13.498 19.837,24.415 44.105,24.415 24.268,0 43.952-10.916 44.105-24.414l10.63-7.149c2.258-1.519 3.307-4.301 2.614-6.933l-6.226-23.633c-0.799-3.032-2.851-5.58-5.643-7.007l-40.463-20.683c-1.575-0.805-3.296-1.208-5.017-1.208-1.721,0-3.442,0.403-5.017,1.208l-40.463,20.682c-2.792,1.427-4.844,3.975-5.642,7.007l-6.227,23.633c-0.693,2.632 0.356,5.414 2.614,6.933zm41.664-33.586c0.19-1.292 1.298-2.249 2.604-2.249h21.107c1.32,0 2.436,0.978 2.609,2.286l1.55,11.71c0,5.856-9.295,13.935-13.152,17.036-0.962,0.773-2.334,0.771-3.296-0.002-3.859-3.102-13.149-11.18-13.149-17.034l1.727-11.747z"/>
  </g>
</svg>
