<?xml version="1.0" encoding="iso-8859-1"?>
<!-- Generator: Adobe Illustrator 19.0.0, SVG Export Plug-In . SVG Version: 6.00 Build 0)  -->
<svg version="1.1" id="Capa_1" xmlns="http://www.w3.org/2000/svg" xmlns:xlink="http://www.w3.org/1999/xlink" x="0px" y="0px"
	 viewBox="0 0 460 460" style="enable-background:new 0 0 460 460;" xml:space="preserve">
<g>
	<rect y="144.677" style="fill:#FFCC99;" width="42.5" height="30"/>
	<rect x="72.5" y="144.677" style="fill:#FFCC99;" width="85" height="30"/>
	<rect x="187.5" y="144.677" style="fill:#FFCC99;" width="42.5" height="30"/>
	<rect x="230" y="144.677" style="fill:#FFB76E;" width="42.5" height="30"/>
	<rect x="302.5" y="144.677" style="fill:#FFB76E;" width="85" height="30"/>
	<rect x="417.5" y="144.677" style="fill:#FFB76E;" width="42.5" height="30"/>
	<rect x="417.5" y="174.677" style="fill:#F46A1A;" width="42.5" height="0.252"/>
	<rect x="230" y="174.677" style="fill:#F46A1A;" width="42.5" height="0.252"/>
	<path style="fill:#F46A1A;" d="M402.5,292.223c-25,0-46.691-14.123-57.565-34.817c-10.917,20.558-32.536,34.565-57.435,34.565
		c-24.95,0-46.605-14.064-57.5-34.691V460h230V257.532C449.105,278.158,427.45,292.223,402.5,292.223z M330,372.078h-30v-30h30
		V372.078z M390,415.201h-30v-30h30V415.201z"/>
	<rect x="302.5" y="174.677" style="fill:#F46A1A;" width="85" height="0.252"/>
	<path style="fill:#FF926E;" d="M172.5,291.97c-25,0-46.691-14.123-57.565-34.817c-10.917,20.558-32.536,34.565-57.435,34.565
		c-24.95,0-46.605-14.064-57.5-34.691V460h230V257.279C219.105,277.906,197.45,291.97,172.5,291.97z"/>
	<path style="fill:#FFB76E;" d="M57.5,291.718c24.899,0,46.519-14.007,57.435-34.565c10.874,20.695,32.564,34.817,57.565,34.817
		c24.95,0,46.605-14.064,57.5-34.691v-82.603h-42.5V196.4c4.017,5.596,7.432,10.407,8.823,12.496
		c4.179,6.278,6.199,12.271,6.177,18.319c-0.029,7.958-3.15,15.434-8.788,21.049c-5.636,5.614-13.213,8.706-21.166,8.706
		s-15.619-3.092-21.256-8.707c-5.638-5.616-8.76-13.091-8.789-21.049c-0.022-6.048,1.998-12.041,6.177-18.319
		c1.807-2.714,5.094-7.346,8.823-12.521v-21.698h-85V196.4c4.017,5.596,7.432,10.407,8.823,12.496
		c4.179,6.278,6.199,12.271,6.177,18.319c-0.029,7.958-3.15,15.434-8.788,21.049c-5.636,5.614-13.213,8.706-21.166,8.706
		s-15.619-3.092-21.256-8.707c-5.638-5.616-8.76-13.091-8.789-21.049c-0.022-6.048,1.998-12.041,6.177-18.319
		c1.807-2.714,5.094-7.346,8.823-12.521v-21.698H0v82.35C10.895,277.653,32.55,291.718,57.5,291.718z"/>
	<path style="fill:#D5310E;" d="M42.5,196.375c-3.729,5.175-7.016,9.807-8.823,12.521c-4.179,6.278-6.2,12.271-6.177,18.319
		c0.029,7.958,3.151,15.433,8.789,21.049c5.637,5.615,13.303,8.707,21.256,8.707s15.53-3.092,21.166-8.706
		c5.638-5.616,8.759-13.091,8.788-21.049c0.022-6.048-1.998-12.041-6.177-18.319c-1.39-2.089-4.806-6.9-8.823-12.496V0h-30V196.375z
		"/>
	<path style="fill:#D5310E;" d="M157.5,196.375c-3.729,5.175-7.016,9.807-8.823,12.521c-4.179,6.278-6.2,12.271-6.177,18.319
		c0.029,7.958,3.151,15.433,8.789,21.049c5.637,5.615,13.303,8.707,21.256,8.707s15.53-3.092,21.166-8.706
		c5.638-5.616,8.759-13.091,8.788-21.049c0.022-6.048-1.998-12.041-6.177-18.319c-1.39-2.089-4.806-6.9-8.823-12.496V0h-30V196.375z
		"/>
	<path style="fill:#FF926E;" d="M417.5,196.463c3.998,5.569,7.392,10.352,8.777,12.433c4.179,6.278,6.199,12.271,6.177,18.319
		c-0.029,7.958-3.15,15.434-8.788,21.049c-5.636,5.614-13.213,8.706-21.166,8.706s-15.619-3.092-21.256-8.707
		c-5.638-5.616-8.76-13.091-8.789-21.049c-0.022-6.048,1.998-12.041,6.177-18.319c1.814-2.725,5.12-7.384,8.868-12.584v-21.383h-85
		V196.4c4.017,5.596,7.432,10.407,8.823,12.496c4.179,6.278,6.199,12.271,6.177,18.319c-0.029,7.958-3.15,15.434-8.788,21.049
		c-5.636,5.614-13.213,8.706-21.166,8.706s-15.619-3.092-21.256-8.707c-5.638-5.616-8.76-13.091-8.789-21.049
		c-0.022-6.048,1.998-12.041,6.177-18.319c1.807-2.714,5.094-7.346,8.823-12.521v-21.445H230v82.35
		c10.895,20.626,32.55,34.691,57.5,34.691c24.899,0,46.519-14.007,57.435-34.565c10.874,20.695,32.564,34.817,57.565,34.817
		c24.95,0,46.605-14.064,57.5-34.691v-82.603h-42.5V196.463z"/>
	<path style="fill:#801B06;" d="M272.5,196.375c-3.729,5.175-7.016,9.807-8.823,12.521c-4.179,6.278-6.2,12.271-6.177,18.319
		c0.029,7.958,3.151,15.433,8.789,21.049c5.637,5.615,13.303,8.707,21.256,8.707s15.53-3.092,21.166-8.706
		c5.638-5.616,8.759-13.091,8.788-21.049c0.022-6.048-1.998-12.041-6.177-18.319c-1.39-2.089-4.806-6.9-8.823-12.496V0h-30V196.375z
		"/>
	<path style="fill:#801B06;" d="M387.5,196.312c-3.747,5.2-7.054,9.859-8.868,12.584c-4.179,6.278-6.2,12.271-6.177,18.319
		c0.029,7.958,3.151,15.433,8.789,21.049c5.637,5.615,13.303,8.707,21.256,8.707s15.53-3.092,21.166-8.706
		c5.638-5.616,8.759-13.091,8.788-21.049c0.022-6.048-1.998-12.041-6.177-18.319c-1.385-2.081-4.78-6.864-8.777-12.433V0h-30
		V196.312z"/>
	<rect x="360" y="385.201" style="fill:#FF926E;" width="30" height="30"/>
	<rect x="300" y="342.078" style="fill:#FF926E;" width="30" height="30"/>
</g>
<g>
</g>
<g>
</g>
<g>
</g>
<g>
</g>
<g>
</g>
<g>
</g>
<g>
</g>
<g>
</g>
<g>
</g>
<g>
</g>
<g>
</g>
<g>
</g>
<g>
</g>
<g>
</g>
<g>
</g>
</svg>
