<?xml version="1.0" encoding="iso-8859-1"?>
<!-- Generator: Adobe Illustrator 19.0.0, SVG Export Plug-In . SVG Version: 6.00 Build 0)  -->
<svg xmlns="http://www.w3.org/2000/svg" xmlns:xlink="http://www.w3.org/1999/xlink" version="1.1" id="Layer_1" x="0px" y="0px" viewBox="0 0 512 512" style="enable-background:new 0 0 512 512;" xml:space="preserve" width="512" height="512">
<g id="XMLID_1096_">
	<path id="XMLID_185_" style="fill:#21399B;" d="M497.197,244.459c-4.202,0-7.609-3.406-7.609-7.609v-30.16   c0-39.25-31.932-71.182-71.182-71.182H92.522c-39.25,0-71.182,31.932-71.182,71.182v30.16c0,4.203-3.407,7.609-7.609,7.609   s-7.609-3.406-7.609-7.609v-30.16c0-47.641,38.759-86.4,86.4-86.4h325.883c47.641,0,86.4,38.758,86.4,86.4v30.16   C504.806,241.053,501.399,244.459,497.197,244.459z"/>
	<g id="XMLID_999_">
		<g id="XMLID_967_">
			<path id="XMLID_891_" style="fill:#FEC007;" d="M506.395,271.988h-25.962v-34.3h25.962c3.096,0,5.605,2.509,5.605,5.605v23.09     C512,269.479,509.491,271.988,506.395,271.988z"/>
		</g>
		<g id="XMLID_970_">
			<path id="XMLID_973_" style="fill:#FEC007;" d="M31.567,271.988H5.605c-3.096,0-5.605-2.509-5.605-5.605v-23.09     c0-3.096,2.509-5.605,5.605-5.605h25.962V271.988z"/>
		</g>
	</g>
	<path id="XMLID_1641_" style="fill:#3F51B4;" d="M26.742,288.386c0,65.944,53.955,120.788,119.897,120.292   c35.078-0.263,66.54-15.708,88.149-40.088c11.295-12.744,31.173-12.28,42.527,0.412c21.785,24.352,53.448,39.679,88.694,39.679   c65.713,0,118.984-53.271,118.984-118.984l0.264-56.809c0.06-12.914-10.392-23.415-23.306-23.415H50.049   c-12.872,0-23.306,10.435-23.306,23.306V288.386z"/>
	<path id="XMLID_1080_" style="fill:#21399B;" d="M485.255,232.889l-0.257,56.804c0,65.713-53.278,118.99-118.99,118.99   c-35.247,0-66.903-15.329-88.696-39.685c-11.352-12.692-31.227-13.153-42.526-0.407c-21.611,24.377-53.063,39.824-88.149,40.082   c-65.938,0.504-119.891-54.339-119.891-120.288v-21.097c0,65.938,53.953,120.781,119.891,120.288   c35.086-0.257,66.538-15.705,88.149-40.082c11.299-12.746,31.173-12.285,42.526,0.407c21.793,24.356,53.449,39.685,88.696,39.685   c65.713,0,118.99-53.278,118.99-118.99l0.172-37.766C485.233,231.506,485.255,232.192,485.255,232.889z"/>
	<g id="XMLID_933_">
		<path id="XMLID_934_" style="fill:#FEC007;" d="M139.467,350.16c-25.44,0-49.918-10.981-67.255-30.196    c-2.815-3.12-2.568-7.932,0.552-10.747s7.931-2.566,10.746,0.552c14.452,16.017,34.821,25.173,55.956,25.173    c0.185,0,0.367,0,0.551-0.002c21.465-0.16,41.951-9.479,56.207-25.563c2.786-3.145,7.596-3.435,10.741-0.648    c3.145,2.788,3.435,7.597,0.647,10.742c-17.113,19.309-41.709,30.494-67.482,30.688    C139.911,350.159,139.687,350.16,139.467,350.16z"/>
		<path id="XMLID_927_" style="fill:#FEC007;" d="M371.686,350.16c-25.441,0-49.919-10.981-67.255-30.196    c-2.815-3.121-2.568-7.932,0.552-10.747c3.12-2.815,7.932-2.566,10.746,0.552c14.451,16.017,34.82,25.173,55.956,25.173    c0.185,0,0.367,0,0.551-0.002c21.464-0.16,41.951-9.479,56.207-25.563c2.786-3.145,7.596-3.436,10.741-0.647    c3.145,2.787,3.435,7.596,0.647,10.741c-17.114,19.309-41.71,30.494-67.482,30.688C372.131,350.159,371.906,350.16,371.686,350.16    z"/>
	</g>
	<path id="XMLID_948_" style="fill:#7586CC;" d="M351.49,152.481H160.51c-8.927,0-16.164-7.237-16.164-16.164V119.48   c0-8.927,7.237-16.164,16.164-16.164H351.49c8.927,0,16.164,7.237,16.164,16.164v16.838   C367.654,145.244,360.417,152.481,351.49,152.481z"/>
	<path id="XMLID_943_" style="fill:#21399B;" d="M278.512,265.49h-45.024c-4.202,0-7.609-3.406-7.609-7.609   c0-4.203,3.407-7.609,7.609-7.609h45.024c4.202,0,7.609,3.406,7.609,7.609C286.121,262.084,282.714,265.49,278.512,265.49z"/>
	<path id="XMLID_2175_" style="fill:#21399B;" d="M266.653,242.612h-21.305c-4.202,0-7.609-3.406-7.609-7.609   s3.407-7.609,7.609-7.609h21.305c4.202,0,7.609,3.406,7.609,7.609S270.855,242.612,266.653,242.612z"/>
</g>















</svg>
