<?xml version="1.0" encoding="iso-8859-1"?>
<!-- Generator: Adobe Illustrator 19.0.0, SVG Export Plug-In . SVG Version: 6.00 Build 0)  -->
<svg version="1.1" id="Capa_1" xmlns="http://www.w3.org/2000/svg" xmlns:xlink="http://www.w3.org/1999/xlink" x="0px" y="0px"
	 viewBox="0 0 512 512" style="enable-background:new 0 0 512 512;" xml:space="preserve">
<circle style="fill:#FFF091;" cx="256" cy="256" r="256"/>
<path style="fill:#FFD06B;" d="M512,256c0-1.627-0.031-3.246-0.062-4.865L314.804,54L280.82,195.357l-140.415,43.416l101.061,101.06
	H147.62l-27.838,107.675l49.372,49.372C196.271,506.659,225.511,512,256,512C397.385,512,512,397.385,512,256z"/>
<path style="fill:#FF8CB4;" d="M328.136,206.658c5.404,6.34,7.292,14.975,4.973,22.977c-14.392,49.652-60.266,86.284-114.226,86.678
	c-17.434,0.128-34.013-3.317-48.99-9.852c-4.448-1.941-9.264-2.891-14.117-2.89l0,0c-19.88,0-35.996,16.116-35.996,35.996v107.942
	h39.411v-61.315c0-13.142,10.654-23.796,23.796-23.796h1.785c6.247,0,12.192,2.509,16.694,6.839
	c28.227,27.147,68.239,42.132,111.63,36.627c56.882-7.215,109.874-60.666,116.662-117.601
	c8.591-72.059-39.486-134.585-105.534-148.92l-0.167-0.233l0,0c-5.111,0-9.255-4.143-9.255-9.255V54h-39.411v119.163
	c0,13.683,11.092,24.775,24.775,24.775h9.076C316.514,197.937,323.42,201.125,328.136,206.658L328.136,206.658z"/>
<path style="fill:#FF5F96;" d="M324.225,139.343l-0.167-0.232c-5.111,0-9.255-4.144-9.255-9.255V54h-39.412v119.163
	c0,13.683,11.092,24.775,24.775,24.775h9.076c7.271,0,14.176,3.187,18.893,8.72c5.405,6.34,7.292,14.976,4.973,22.977
	c-10.943,37.754-40.096,67.96-77.157,80.451v91.099c17.776,5.383,37.098,7.221,57.145,4.678
	c56.882-7.215,109.874-60.667,116.662-117.601C438.35,216.204,390.272,153.678,324.225,139.343z"/>
<circle style="fill:#FFFFFF;" cx="210.33" cy="177.5" r="84.52"/>
<path style="fill:#E0E0E0;" d="M210.327,92.985c-0.469,0-0.931,0.028-1.398,0.035v168.962c0.467,0.008,0.929,0.035,1.398,0.035
	c46.677,0,84.516-37.839,84.516-84.516S257.004,92.985,210.327,92.985z"/>
<path style="fill:#999999;" d="M210.327,270.518c-51.289,0-93.017-41.727-93.017-93.016s41.728-93.016,93.017-93.016
	s93.016,41.727,93.016,93.016S261.616,270.518,210.327,270.518z M210.327,101.485c-41.916,0-76.017,34.101-76.017,76.016
	s34.101,76.016,76.017,76.016c41.915,0,76.016-34.101,76.016-76.016S252.242,101.485,210.327,101.485z"/>
<path style="fill:#808080;" d="M210.327,84.485c-0.468,0-0.933,0.011-1.398,0.018v17.018c0.467-0.009,0.929-0.035,1.398-0.035
	c41.915,0,76.016,34.101,76.016,76.016s-34.101,76.016-76.016,76.016c-0.469,0-0.932-0.027-1.398-0.035V270.5
	c0.466,0.007,0.931,0.018,1.398,0.018c51.289,0,93.016-41.727,93.016-93.016S261.616,84.485,210.327,84.485z"/>
<circle style="fill:#FF4682;" cx="216.79" cy="143.5" r="17"/>
<path style="fill:#D72D73;" d="M216.793,126.493c-2.84,0-5.512,0.706-7.865,1.937v30.132c2.353,1.231,5.025,1.937,7.865,1.937
	c9.39,0,17.003-7.612,17.003-17.003S226.184,126.493,216.793,126.493z"/>
<circle style="fill:#FF5F96;" cx="177" cy="204.21" r="17"/>
<circle style="fill:#82CD64;" cx="177" cy="160.5" r="8.501"/>
<circle style="fill:#64A54B;" cx="242.8" cy="182.94" r="21.274"/>
<g>
</g>
<g>
</g>
<g>
</g>
<g>
</g>
<g>
</g>
<g>
</g>
<g>
</g>
<g>
</g>
<g>
</g>
<g>
</g>
<g>
</g>
<g>
</g>
<g>
</g>
<g>
</g>
<g>
</g>
</svg>
