<?xml version="1.0" encoding="iso-8859-1"?>
<!-- Generator: Adobe Illustrator 19.0.0, SVG Export Plug-In . SVG Version: 6.00 Build 0)  -->
<svg version="1.1" id="Capa_1" xmlns="http://www.w3.org/2000/svg" xmlns:xlink="http://www.w3.org/1999/xlink" x="0px" y="0px"
	 viewBox="0 0 409.6 409.6" style="enable-background:new 0 0 409.6 409.6;" xml:space="preserve">
<path style="fill:#EBF0F3;" d="M316.584,16.58H93.016c-11.1,0-20.097,8.997-20.097,20.095V265.27
	c0,72.836,59.045,131.88,131.881,131.88l0,0c72.835,0,131.88-59.045,131.88-131.88V36.676
	C336.681,25.577,327.684,16.58,316.584,16.58z"/>
<g>
	<polygon style="fill:#64798A;" points="113.218,0 121.681,38.331 287.919,38.331 296.382,0 	"/>
	<rect x="108.544" y="76.662" style="fill:#64798A;" width="192.471" height="121.016"/>
</g>
<polygon style="fill:#3A556A;" points="108.564,197.681 108.564,76.663 301.037,76.663 "/>
<rect x="117.212" y="85.325" style="fill:#FFFFFF;" width="175.155" height="103.695"/>
<path style="fill:#FCD462;" d="M204.801,299.041c-10.294,0-18.639,8.344-18.639,18.639v91.92h37.277v-91.92
	C223.439,307.385,215.095,299.041,204.801,299.041z"/>
<rect x="186.163" y="326.144" style="fill:#F6C358;" width="37.279" height="32.819"/>
<path style="fill:#E56353;" d="M210.31,338.68c3.786,6.468-2.892,13.149-9.361,9.361c-0.671-0.393-1.266-0.987-1.658-1.658
	c-3.788-6.469,2.893-13.147,9.361-9.361C209.323,337.415,209.918,338.009,210.31,338.68z"/>
<path style="fill:#64798A;" d="M204.801,227.799c-31.605,0-57.224,25.62-57.224,57.224v99.099
	c13.226,6.379,27.688,10.596,42.919,12.24v-78.681c0-7.89,6.417-14.307,14.307-14.307c7.889,0,14.307,6.417,14.307,14.307v78.681
	c15.229-1.645,29.688-5.86,42.914-12.24v-99.099C262.024,253.419,236.403,227.799,204.801,227.799z"/>
<path style="fill:#E56353;" d="M214.482,252.107c7.11,11.686-5.101,23.897-16.787,16.787c-1.04-0.632-1.95-1.543-2.581-2.583
	c-7.094-11.682,5.103-23.88,16.785-16.785C212.939,250.158,213.849,251.068,214.482,252.107z"/>
<g>
	<rect x="147.579" y="281.201" style="fill:#3A556A;" width="114.447" height="6.692"/>
	<polygon style="fill:#3A556A;" points="145.089,104.137 141.972,107.099 145.089,110.062 167.491,110.062 170.608,107.099 
		167.491,104.137 	"/>
	<polygon style="fill:#3A556A;" points="174.741,110.757 171.778,107.639 168.816,110.757 168.816,133.159 171.778,136.275 
		174.741,133.159 	"/>
	<polygon style="fill:#3A556A;" points="144.251,110.757 141.289,107.639 138.326,110.757 138.326,133.159 141.289,136.275 
		144.251,133.159 	"/>
	<polygon style="fill:#3A556A;" points="145.089,170.208 141.972,167.246 145.089,164.283 167.491,164.283 170.608,167.246 
		167.491,170.208 	"/>
	<polygon style="fill:#3A556A;" points="174.741,163.588 171.778,166.706 168.816,163.588 168.816,141.186 171.778,138.07 
		174.741,141.186 	"/>
	<polygon style="fill:#3A556A;" points="144.251,163.588 141.289,166.706 138.326,163.588 138.326,141.186 141.289,138.07 
		144.251,141.186 	"/>
	<polygon style="fill:#3A556A;" points="193.356,104.137 190.239,107.099 193.356,110.062 215.758,110.062 218.876,107.099 
		215.758,104.137 	"/>
	<polygon style="fill:#3A556A;" points="223.008,110.757 220.046,107.639 217.083,110.757 217.083,133.159 220.046,136.275 
		223.008,133.159 	"/>
	<polygon style="fill:#3A556A;" points="192.518,110.757 189.556,107.639 186.593,110.757 186.593,133.159 189.556,136.275 
		192.518,133.159 	"/>
	<polygon style="fill:#3A556A;" points="193.356,170.208 190.239,167.246 193.356,164.283 215.758,164.283 218.876,167.246 
		215.758,170.208 	"/>
	<polygon style="fill:#3A556A;" points="223.008,163.588 220.046,166.706 217.083,163.588 217.083,141.186 220.046,138.07 
		223.008,141.186 	"/>
	<polygon style="fill:#3A556A;" points="192.518,163.588 189.556,166.706 186.593,163.588 186.593,141.186 189.556,138.07 
		192.518,141.186 	"/>
	<polygon style="fill:#3A556A;" points="241.623,104.137 238.507,107.099 241.623,110.062 264.025,110.062 267.143,107.099 
		264.025,104.137 	"/>
	<polygon style="fill:#3A556A;" points="271.275,110.757 268.313,107.639 265.35,110.757 265.35,133.159 268.313,136.275 
		271.275,133.159 	"/>
	<polygon style="fill:#3A556A;" points="240.786,110.757 237.824,107.639 234.86,110.757 234.86,133.159 237.824,136.275 
		240.786,133.159 	"/>
	<polygon style="fill:#3A556A;" points="241.623,170.208 238.507,167.246 241.623,164.283 264.025,164.283 267.143,167.246 
		264.025,170.208 	"/>
	<polygon style="fill:#3A556A;" points="271.275,163.588 268.313,166.706 265.35,163.588 265.35,141.186 268.313,138.07 
		271.275,141.186 	"/>
	<polygon style="fill:#3A556A;" points="240.786,163.588 237.824,166.706 234.86,163.588 234.86,141.186 237.824,138.07 
		240.786,141.186 	"/>
</g>
<g>
</g>
<g>
</g>
<g>
</g>
<g>
</g>
<g>
</g>
<g>
</g>
<g>
</g>
<g>
</g>
<g>
</g>
<g>
</g>
<g>
</g>
<g>
</g>
<g>
</g>
<g>
</g>
<g>
</g>
</svg>
