<?xml version="1.0" encoding="iso-8859-1"?>
<!-- Generator: Adobe Illustrator 19.0.0, SVG Export Plug-In . SVG Version: 6.00 Build 0)  -->
<svg version="1.1" id="Layer_1" xmlns="http://www.w3.org/2000/svg" xmlns:xlink="http://www.w3.org/1999/xlink" x="0px" y="0px"
	 viewBox="0 0 512 512" style="enable-background:new 0 0 512 512;" xml:space="preserve">
<circle style="fill:#FFCF35;" cx="256" cy="256" r="256"/>
<path style="fill:#FFB344;" d="M512,256c0-23.96-3.301-47.148-9.457-69.144l-89.991-89.991L103.973,254.027l-31.152,134.64
	l113.816,113.816C208.697,508.679,231.96,512,256,512C397.385,512,512,397.385,512,256z"/>
<rect x="201.028" y="127.095" transform="matrix(-0.9599 0.2802 -0.2802 -0.9599 651.4906 197.9132)" style="fill:#005C83;" width="221.142" height="36.858"/>
<circle style="fill:#008CC3;" cx="232.03" cy="219.21" r="117.09"/>
<g>
	<path style="fill:#0074A3;" d="M349.116,219.213c0-56.568-40.115-103.766-93.45-114.7v229.399
		C309.001,322.979,349.116,275.781,349.116,219.213z"/>
	<path style="fill:#0074A3;" d="M436.648,273.778H69.471v-44.902c0-34.216,27.738-61.954,61.954-61.954H350.21
		c24.841,0,47.281,14.838,57.007,37.696L436.648,273.778z"/>
</g>
<g>
	<path style="fill:#005C83;" d="M407.218,204.617c-9.727-22.858-32.166-37.696-57.007-37.696h-94.543v106.856h180.981
		L407.218,204.617z"/>
	<path style="fill:#005C83;" d="M415.298,359.036H89.24c-12.351,0-23.884-6.173-30.735-16.449L24,290.83l30.693-38.65h451.298
		l-57.721,88.948C441.022,352.296,428.613,359.036,415.298,359.036z"/>
</g>
<path style="fill:#00263F;" d="M255.667,252.18v106.856h159.632c13.314,0,25.723-6.74,32.971-17.909l57.721-88.948L255.667,252.18
	L255.667,252.18z"/>
<circle style="fill:#FFFFFF;" cx="106.6" cy="360.56" r="43.952"/>
<circle style="fill:#C0C0C0;" cx="106.6" cy="360.56" r="23.846"/>
<circle style="fill:#FFFFFF;" cx="203.86" cy="360.56" r="43.952"/>
<circle style="fill:#C0C0C0;" cx="203.86" cy="360.56" r="23.846"/>
<circle style="fill:#E0E0E0;" cx="299.24" cy="360.56" r="43.952"/>
<circle style="fill:#758F9B;" cx="299.24" cy="360.56" r="23.846"/>
<circle style="fill:#E0E0E0;" cx="395.56" cy="360.56" r="43.952"/>
<circle style="fill:#758F9B;" cx="395.56" cy="360.56" r="23.846"/>
<g>
</g>
<g>
</g>
<g>
</g>
<g>
</g>
<g>
</g>
<g>
</g>
<g>
</g>
<g>
</g>
<g>
</g>
<g>
</g>
<g>
</g>
<g>
</g>
<g>
</g>
<g>
</g>
<g>
</g>
</svg>
