<?xml version="1.0" encoding="iso-8859-1"?>
<!-- Generator: Adobe Illustrator 19.0.0, SVG Export Plug-In . SVG Version: 6.00 Build 0)  -->
<svg version="1.1" id="Layer_1" xmlns="http://www.w3.org/2000/svg" xmlns:xlink="http://www.w3.org/1999/xlink" x="0px" y="0px"
	 viewBox="0 0 460 460" style="enable-background:new 0 0 460 460;" xml:space="preserve">
<g id="XMLID_2800_">
	<path id="XMLID_831_" style="fill:#D49083;" d="M460,120L460,120v30v10v30v20v15c0,19.33-15.67,35-35,35l0,0
		c-19.33,0-35-15.67-35-35l0,0c0-19.33,15.67-35,35-35h5v-70h-70v-2l-0.201,0.563l-80.318,224.89
		c-5.686,15.92-20.765,26.547-37.67,26.547h-23.622c-16.905,0-31.984-10.627-37.67-26.547l-80.318-224.89L100,118v2H30v70h5
		c19.33,0,35,15.67,35,35l0,0c0,19.33-15.67,35-35,35l0,0c-19.33,0-35-15.67-35-35v-15v-20v-30v-10v-30l0,0
		c0-16.568,13.431-30,30-30h400C446.569,90,460,103.431,460,120z"/>
	<path id="XMLID_836_" style="fill:#D89991;" d="M230,290L230,290c-23.988,0-45.386-15.08-53.453-37.67L118.572,90h222.857
		l-57.975,162.33C275.386,274.921,253.988,290,230,290z"/>
	<path id="XMLID_818_" style="fill:#B57C71;" d="M70,225L70,225c0,19.33-15.67,35-35,35l0,0c-19.33,0-35-15.67-35-35v-35h35
		C54.33,190,70,205.67,70,225z"/>
	<path id="XMLID_815_" style="fill:#E4ABA7;" d="M40,200v10c0,11.046-8.954,20-20,20s-20-8.954-20-20v-20v-30
		c0,16.569,13.431,30,30,30C35.523,190,40,194.477,40,200z"/>
	<path id="XMLID_830_" style="fill:#B57C71;" d="M460,190v35c0,19.33-15.67,35-35,35l0,0c-19.33,0-35-15.67-35-35l0,0
		c0-19.33,15.67-35,35-35H460z"/>
	<path id="XMLID_816_" style="fill:#E4ABA7;" d="M430,190c16.569,0,30-13.431,30-30v30v20c0,11.046-8.954,20-20,20s-20-8.954-20-20
		v-10C420,194.477,424.477,190,430,190z"/>
	<path id="XMLID_813_" style="fill:#E4ABA7;" d="M460,120L460,120v30c0-16.568-13.431-30-30-30h-70v-2l-0.714,2h-39.477
		c-8.452,0-15.992,5.313-18.835,13.273l-17.52,49.057C275.385,204.921,253.988,220,230,220l0,0c-23.988,0-45.385-15.08-53.453-37.67
		l-17.52-49.057c-2.843-7.96-10.383-13.273-18.835-13.273h-39.477L100,118v2H30c-16.569,0-30,13.431-30,30v-30l0,0
		c0-16.568,13.431-30,30-30h60h10h43.571h172.857H360h10h60C446.569,90,460,103.431,460,120z"/>
	<path id="XMLID_812_" style="fill:#F4C3C3;" d="M255.424,120c6.983,0,11.816,6.975,9.363,13.513
		c-2.946,7.852-6.004,16.204-6.004,16.204C254.438,161.88,242.917,170,230,170l0,0c-12.916,0-24.438-8.12-28.783-20.284
		c0,0-3.058-8.352-6.004-16.204c-2.453-6.538,2.379-13.513,9.363-13.513L255.424,120L255.424,120z"/>
</g>
<g>
</g>
<g>
</g>
<g>
</g>
<g>
</g>
<g>
</g>
<g>
</g>
<g>
</g>
<g>
</g>
<g>
</g>
<g>
</g>
<g>
</g>
<g>
</g>
<g>
</g>
<g>
</g>
<g>
</g>
</svg>
